<?xml version="1.0" encoding="UTF-8" standalone="no"?>
<!-- Generator: Adobe Illustrator 21.1.0, SVG Export Plug-In . SVG Version: 6.00 Build 0)  -->

<svg
   xmlns:dc="http://purl.org/dc/elements/1.1/"
   xmlns:cc="http://creativecommons.org/ns#"
   xmlns:rdf="http://www.w3.org/1999/02/22-rdf-syntax-ns#"
   xmlns:svg="http://www.w3.org/2000/svg"
   xmlns="http://www.w3.org/2000/svg"
   xmlns:sodipodi="http://sodipodi.sourceforge.net/DTD/sodipodi-0.dtd"
   xmlns:inkscape="http://www.inkscape.org/namespaces/inkscape"
   version="1.1"
   id="weather-icon-clear"
   x="0px"
   y="0px"
   viewBox="0 0 64 64"
   style="enable-background:new 0 0 64 64;"
   xml:space="preserve"
   sodipodi:docname="01d.svg"
   inkscape:version="0.92.4 (5da689c313, 2019-01-14)"><metadata
   id="metadata10"><rdf:RDF><cc:Work
       rdf:about=""><dc:format>image/svg+xml</dc:format><dc:type
         rdf:resource="http://purl.org/dc/dcmitype/StillImage" /></cc:Work></rdf:RDF></metadata><defs
   id="defs8" /><sodipodi:namedview
   pagecolor="#ffffff"
   bordercolor="#666666"
   borderopacity="1"
   objecttolerance="10"
   gridtolerance="10"
   guidetolerance="10"
   inkscape:pageopacity="0"
   inkscape:pageshadow="2"
   inkscape:window-width="2560"
   inkscape:window-height="1377"
   id="namedview6"
   showgrid="false"
   inkscape:zoom="3.6875"
   inkscape:cx="-12.067797"
   inkscape:cy="32"
   inkscape:window-x="-8"
   inkscape:window-y="-8"
   inkscape:window-maximized="1"
   inkscape:current-layer="weather-icon-clear" />
<g
   id="clear"
   style="fill:#aaaaaa;fill-opacity:1">
	<path
   d="M32.9,19.2c-0.7,0-1.3-0.6-1.3-1.3v-4.6c0-0.7,0.6-1.3,1.3-1.3s1.3,0.6,1.3,1.3v4.6C34.2,18.6,33.6,19.2,32.9,19.2z    M32.9,53.8c-0.7,0-1.3-0.6-1.3-1.3v-4.6c0-0.7,0.6-1.3,1.3-1.3s1.3,0.6,1.3,1.3v4.6C34.2,53.2,33.6,53.8,32.9,53.8z M17.9,34.2   h-4.6c-0.7,0-1.3-0.6-1.3-1.3s0.6-1.3,1.3-1.3h4.6c0.7,0,1.3,0.6,1.3,1.3S18.6,34.2,17.9,34.2z M52.5,34.2h-4.6   c-0.7,0-1.3-0.6-1.3-1.3s0.6-1.3,1.3-1.3h4.6c0.7,0,1.3,0.6,1.3,1.3S53.2,34.2,52.5,34.2z M44,23.5c-0.3,0-0.7-0.1-0.9-0.4   c-0.5-0.5-0.5-1.4,0-1.9l3.2-3.2c0.5-0.5,1.4-0.5,1.9,0s0.5,1.4,0,1.9L45,23.1C44.7,23.4,44.3,23.5,44,23.5z M19.1,48.4   c-0.3,0-0.7-0.1-0.9-0.4c-0.5-0.5-0.5-1.4,0-1.9l3.2-3.2c0.5-0.5,1.4-0.5,1.9,0s0.5,1.4,0,1.9L20,48C19.8,48.3,19.4,48.4,19.1,48.4   z M47.2,48.2c-0.3,0-0.7-0.1-0.9-0.4l-3.2-3.2c-0.5-0.5-0.5-1.4,0-1.9s1.4-0.5,1.9,0l3.2,3.2c0.5,0.5,0.5,1.4,0,1.9   C47.9,48.1,47.6,48.2,47.2,48.2z M22.3,23.7c-0.3,0-0.7-0.1-0.9-0.4l-3.2-3.2c-0.5-0.5-0.5-1.4,0-1.9s1.4-0.5,1.9,0l3.2,3.2   c0.5,0.5,0.5,1.4,0,1.9C23,23.6,22.7,23.7,22.3,23.7z M32.9,24.5c4.6,0,8.4,3.8,8.4,8.4s-3.8,8.4-8.4,8.4s-8.4-3.8-8.4-8.4   S28.3,24.5,32.9,24.5 M32.9,21.8c-6.1,0-11.1,5-11.1,11.1S26.8,44,32.9,44S44,39,44,32.9S39,21.8,32.9,21.8z"
   id="path2"
   style="fill:#aaaaaa;fill-opacity:1" />
</g>
</svg>