<?xml version="1.0" encoding="UTF-8" standalone="no"?>
<!-- Generator: Adobe Illustrator 21.1.0, SVG Export Plug-In . SVG Version: 6.00 Build 0)  -->

<svg
   xmlns:dc="http://purl.org/dc/elements/1.1/"
   xmlns:cc="http://creativecommons.org/ns#"
   xmlns:rdf="http://www.w3.org/1999/02/22-rdf-syntax-ns#"
   xmlns:svg="http://www.w3.org/2000/svg"
   xmlns="http://www.w3.org/2000/svg"
   xmlns:sodipodi="http://sodipodi.sourceforge.net/DTD/sodipodi-0.dtd"
   xmlns:inkscape="http://www.inkscape.org/namespaces/inkscape"
   version="1.1"
   id="Layer_4"
   x="0px"
   y="0px"
   viewBox="0 0 64 64"
   style="enable-background:new 0 0 64 64;"
   xml:space="preserve"
   sodipodi:docname="01n.svg"
   inkscape:version="0.92.4 (5da689c313, 2019-01-14)"><metadata
   id="metadata9"><rdf:RDF><cc:Work
       rdf:about=""><dc:format>image/svg+xml</dc:format><dc:type
         rdf:resource="http://purl.org/dc/dcmitype/StillImage" /></cc:Work></rdf:RDF></metadata><defs
   id="defs7" /><sodipodi:namedview
   pagecolor="#ffffff"
   bordercolor="#666666"
   borderopacity="1"
   objecttolerance="10"
   gridtolerance="10"
   guidetolerance="10"
   inkscape:pageopacity="0"
   inkscape:pageshadow="2"
   inkscape:window-width="2006"
   inkscape:window-height="1284"
   id="namedview5"
   showgrid="false"
   inkscape:zoom="3.6875"
   inkscape:cx="-12.067797"
   inkscape:cy="32"
   inkscape:window-x="0"
   inkscape:window-y="0"
   inkscape:window-maximized="0"
   inkscape:current-layer="Layer_4" />
<path
   d="M50.5,35.1C39,35.1,26.3,26,32.1,11.2l0,0c-12.4-0.1-20.9,10-20.9,20.8c0,11.5,9.3,20.9,20.9,20.9  c10.5,0,19.2-7.6,20.7-17.7C52.8,35.1,51.3,35.1,50.5,35.1z M32.4,49.8c-9.9,0-17.9-8-17.9-17.9c0-8.2,5.8-15.1,13.3-17.3v0.1  c-1.8,12.5,7.1,23,20.7,24.2l0,0C45,45.7,40.2,49.5,32.4,49.8z"
   id="path2"
   style="fill:#aaaaaa;fill-opacity:1" />
</svg>