<?xml version="1.0" encoding="UTF-8" standalone="no"?>
<svg
   xmlns:dc="http://purl.org/dc/elements/1.1/"
   xmlns:cc="http://creativecommons.org/ns#"
   xmlns:rdf="http://www.w3.org/1999/02/22-rdf-syntax-ns#"
   xmlns:svg="http://www.w3.org/2000/svg"
   xmlns="http://www.w3.org/2000/svg"
   xmlns:sodipodi="http://sodipodi.sourceforge.net/DTD/sodipodi-0.dtd"
   xmlns:inkscape="http://www.inkscape.org/namespaces/inkscape"
   id="weather-icon-fog"
   class="weather-icon weather-icon-black fog"
   viewBox="0 0 64 64"
   version="1.1"
   sodipodi:docname="50n.svg"
   inkscape:version="0.92.4 (5da689c313, 2019-01-14)">
  <metadata
     id="metadata11">
    <rdf:RDF>
      <cc:Work
         rdf:about="">
        <dc:format>image/svg+xml</dc:format>
        <dc:type
           rdf:resource="http://purl.org/dc/dcmitype/StillImage" />
      </cc:Work>
    </rdf:RDF>
  </metadata>
  <defs
     id="defs9" />
  <sodipodi:namedview
     pagecolor="#ffffff"
     bordercolor="#666666"
     borderopacity="1"
     objecttolerance="10"
     gridtolerance="10"
     guidetolerance="10"
     inkscape:pageopacity="0"
     inkscape:pageshadow="2"
     inkscape:window-width="1783"
     inkscape:window-height="1300"
     id="namedview7"
     showgrid="false"
     inkscape:zoom="3.6875"
     inkscape:cx="32"
     inkscape:cy="32"
     inkscape:window-x="0"
     inkscape:window-y="0"
     inkscape:window-maximized="0"
     inkscape:current-layer="weather-icon-fog" />
  <path
     d="M41.7 38.5c-3.2 0-6.1-.9-8.7-2.7-7.2-5.1-13.2-5.3-19.6-.9-.5.3-1.1.2-1.4-.3-.3-.5-.2-1.1.3-1.4 7.1-4.9 14.1-4.6 21.9.9 6.2 4.4 13.3 1.9 18.2-1 .5-.3 1.1-.1 1.4.4.3.5.1 1.1-.4 1.4-4 2.4-8 3.6-11.7 3.6z"
     id="path2"
     style="fill:#aaaaaa;fill-opacity:1" />
  <path
     d="M41.7 46.3c-3.2 0-6.1-.9-8.7-2.7-7.2-5.1-13.2-5.3-19.6-.9-.5.3-1.1.2-1.4-.3-.3-.5-.2-1.1.3-1.4 7.1-4.9 14.1-4.6 21.9.9 6.2 4.3 13.3 1.9 18.2-1 .5-.3 1.1-.1 1.4.4.3.5.1 1.1-.4 1.4-4 2.4-8 3.6-11.7 3.6zM41.7 30.8c-3.2 0-6.1-.9-8.7-2.7-7.2-5.1-13.2-5.3-19.6-.9-.5.3-1.1.2-1.4-.3-.3-.5-.2-1.1.3-1.4 7.1-4.9 14.1-4.6 21.9.9 6.2 4.4 13.3 1.9 18.2-1 .5-.3 1.1-.1 1.4.4.3.5.1 1.1-.4 1.4-4 2.4-8 3.6-11.7 3.6z"
     id="path4"
     style="fill:#aaaaaa;fill-opacity:1" />
</svg>
